<svg xmlns="http://www.w3.org/2000/svg" width="17" height="21" viewBox="0 0 17 21">
    <path fill="#999" fill-rule="nonzero" d="M15.27 6.75v12.5c0 .69-.552 1.25-1.232 1.25H2.962c-.68 0-1.231-.56-1.231-1.25V6.75C1.05 6.75.5 6.19.5 5.5V4.25C.5 3.56 1.051 3 1.73 3h3.693V1.126A.62.62 0 0 1 6.038.5h4.924c.34 0 .615.28.615.626V3h3.693c.68 0 1.23.56 1.23 1.25V5.5c0 .69-.55 1.25-1.23 1.25zm-12.308.625v11.249a.62.62 0 0 0 .615.626h9.846a.62.62 0 0 0 .615-.626V6.75H2.962v.625zm7.384-5.625H6.654V3h3.692V1.75zm4.308 2.5H2.346a.62.62 0 0 0-.615.625.62.62 0 0 0 .615.625h12.308a.62.62 0 0 0 .616-.625.62.62 0 0 0-.616-.625zm-8 13.75h-1.23V9.25h1.23V18zm2.461 0h-1.23V9.25h1.23V18zm2.462 0h-1.23V9.25h1.23V18z"/>
</svg>
